STARTFONT 2.1
FONT -JDECW-Kmenu-Medium-R-Normal--17-120-100-100-P-85-ISO8859-1
SIZE 12 100 100
FONTBOUNDINGBOX 12 18 0 -3

STARTPROPERTIES 26
FONTNAME_REGISTRY ""
FAMILY_NAME "Kmenu"
FOUNDRY "JDECW"
WEIGHT_NAME "Medium"
SLANT "R"
SETWIDTH_NAME "Normal"
ADD_STYLE_NAME ""
PIXEL_SIZE 17
POINT_SIZE 120
RESOLUTION_X 100
RESOLUTION_Y 100
SPACING "P"
AVERAGE_WIDTH 85
CHARSET_REGISTRY "ISO8859"
CHARSET_ENCODING "1"
DEVICE_FONT_NAME "Kmenu-ISO8859-1"
CHARSET_COLLECTIONS "ISO8859-1"
FULL_NAME "Kmenu ISO8859-1"
COPYRIGHT "Copyright(c) 1991 Digital Equipment Corporation Japan"
CAP_HEIGHT 13
X_HEIGHT 8
WEIGHT 10
QUAD_WIDTH 8
DEFAULT_CHAR 32
FONT_DESCENT 3
FONT_ASCENT 15
ENDPROPERTIES

CHARS 224

STARTCHAR C20
ENCODING 32
SWIDTH 1000 0
DWIDTH 4 0
BBX 4 18 0 -3
BITMAP
00
00
00
00
00
00
00
00
00
00
00
00
00
00
00
00
00
00
ENDCHAR

STARTCHAR C21
ENCODING 33
SWIDTH 1000 0
DWIDTH 4 0
BBX 4 18 0 -3
BITMAP
00
00
C0
C0
C0
C0
C0
C0
C0
C0
C0
00
00
C0
C0
00
00
00
ENDCHAR

STARTCHAR C22
ENCODING 34
SWIDTH 1000 0
DWIDTH 7 0
BBX 7 18 0 -3
BITMAP
00
00
D8
D8
D8
00
00
00
00
00
00
00
00
00
00
00
00
00
ENDCHAR

STARTCHAR C23
ENCODING 35
SWIDTH 1000 0
DWIDTH 11 0
BBX 11 18 0 -3
BITMAP
0000
0000
3600
3600
3600
3600
FF80
3600
3600
3600
3600
FF80
3600
3600
3600
3600
0000
0000
ENDCHAR

STARTCHAR C24
ENCODING 36
SWIDTH 1000 0
DWIDTH 10 0
BBX 10 18 0 -3
BITMAP
0000
0000
1800
7E00
DB00
DB00
DB00
7800
3800
1C00
1E00
DB00
DB00
DB00
7E00
1800
0000
0000
ENDCHAR

STARTCHAR C25
ENCODING 37
SWIDTH 1000 0
DWIDTH 10 0
BBX 10 18 0 -3
BITMAP
0000
0000
6300
F300
F600
F600
6C00
0C00
1800
1800
3000
3600
6F00
6F00
CF00
C600
0000
0000
ENDCHAR

STARTCHAR C26
ENCODING 38
SWIDTH 1000 0
DWIDTH 10 0
BBX 10 18 0 -3
BITMAP
0000
0000
3000
7800
7800
7800
7800
7300
3300
3300
7300
DE00
DE00
CE00
CE00
7B00
0000
0000
ENDCHAR

STARTCHAR C27
ENCODING 39
SWIDTH 1000 0
DWIDTH 5 0
BBX 5 18 0 -3
BITMAP
00
00
60
60
C0
00
00
00
00
00
00
00
00
00
00
00
00
00
ENDCHAR

STARTCHAR C28
ENCODING 40
SWIDTH 1000 0
DWIDTH 5 0
BBX 5 18 0 -3
BITMAP
00
10
20
60
60
C0
C0
C0
C0
C0
C0
C0
60
60
20
10
00
00
ENDCHAR

STARTCHAR C29
ENCODING 41
SWIDTH 1000 0
DWIDTH 5 0
BBX 5 18 0 -3
BITMAP
00
80
40
60
60
30
30
30
30
30
30
30
60
60
40
80
00
00
ENDCHAR

STARTCHAR C2a
ENCODING 42
SWIDTH 1000 0
DWIDTH 8 0
BBX 8 18 0 -3
BITMAP
00
00
00
00
00
30
30
FC
78
30
78
FC
30
30
00
00
00
00
ENDCHAR

STARTCHAR C2b
ENCODING 43
SWIDTH 1000 0
DWIDTH 9 0
BBX 9 18 0 -3
BITMAP
0000
0000
0000
0000
0000
1800
1800
1800
1800
FF00
1800
1800
1800
1800
0000
0000
0000
0000
ENDCHAR

STARTCHAR C2c
ENCODING 44
SWIDTH 1000 0
DWIDTH 6 0
BBX 6 18 0 -3
BITMAP
00
00
00
00
00
00
00
00
00
00
00
00
00
70
70
60
C0
00
ENDCHAR

STARTCHAR C2d
ENCODING 45
SWIDTH 1000 0
DWIDTH 10 0
BBX 10 18 0 -3
BITMAP
0000
0000
0000
0000
0000
0000
0000
0000
0000
FF00
0000
0000
0000
0000
0000
0000
0000
0000
ENDCHAR

STARTCHAR C2e
ENCODING 46
SWIDTH 1000 0
DWIDTH 5 0
BBX 5 18 0 -3
BITMAP
00
00
00
00
00
00
00
00
00
00
00
00
00
E0
E0
00
00
00
ENDCHAR

STARTCHAR C2f
ENCODING 47
SWIDTH 1000 0
DWIDTH 10 0
BBX 10 18 0 -3
BITMAP
0000
0000
0300
0300
0600
0600
0C00
0C00
1800
1800
3000
3000
6000
6000
C000
C000
0000
0000
ENDCHAR

STARTCHAR zero
ENCODING 48
SWIDTH 1000 0
DWIDTH 9 0
BBX 9 18 0 -3
BITMAP
0000
0000
1C00
3600
6300
6300
6300
6300
6300
6300
6300
6300
6300
3600
1C00
0000
0000
0000
ENDCHAR

STARTCHAR one
ENCODING 49
SWIDTH 1000 0
DWIDTH 9 0
BBX 9 18 0 -3
BITMAP
0000
0000
1C00
3C00
0C00
0C00
0C00
0C00
0C00
0C00
0C00
0C00
0C00
0C00
3F00
0000
0000
0000
ENDCHAR

STARTCHAR two
ENCODING 50
SWIDTH 1000 0
DWIDTH 9 0
BBX 9 18 0 -3
BITMAP
0000
0000
1C00
3600
6300
6300
6300
0300
0600
0600
0C00
1800
3000
6000
7F00
0000
0000
0000
ENDCHAR

STARTCHAR three
ENCODING 51
SWIDTH 1000 0
DWIDTH 9 0
BBX 9 18 0 -3
BITMAP
0000
0000
1C00
3600
6300
6300
0300
0E00
3E00
0300
0300
6300
6300
3600
1C00
0000
0000
0000
ENDCHAR

STARTCHAR four
ENCODING 52
SWIDTH 1000 0
DWIDTH 9 0
BBX 9 18 0 -3
BITMAP
0000
0000
0600
0600
0E00
0E00
1E00
1E00
3600
3600
6600
7F00
0600
0600
0600
0000
0000
0000
ENDCHAR

STARTCHAR five
ENCODING 53
SWIDTH 1000 0
DWIDTH 9 0
BBX 9 18 0 -3
BITMAP
0000
0000
7F00
6000
6000
6000
7C00
6600
0300
0300
0300
6300
6300
3600
1C00
0000
0000
0000
ENDCHAR

STARTCHAR six
ENCODING 54
SWIDTH 1000 0
DWIDTH 9 0
BBX 9 18 0 -3
BITMAP
0000
0000
1C00
3600
6300
6000
6000
7C00
7600
6300
6300
6300
6300
3600
1C00
0000
0000
0000
ENDCHAR

STARTCHAR seven
ENCODING 55
SWIDTH 1000 0
DWIDTH 9 0
BBX 9 18 0 -3
BITMAP
0000
0000
7F00
6300
6300
6600
0600
0600
0C00
0C00
0C00
1800
1800
1800
1800
0000
0000
0000
ENDCHAR

STARTCHAR eight
ENCODING 56
SWIDTH 1000 0
DWIDTH 9 0
BBX 9 18 0 -3
BITMAP
0000
0000
1C00
3600
6300
6300
6300
3600
1C00
3600
6300
6300
6300
3600
1C00
0000
0000
0000
ENDCHAR

STARTCHAR nine
ENCODING 57
SWIDTH 1000 0
DWIDTH 9 0
BBX 9 18 0 -3
BITMAP
0000
0000
1C00
3600
6300
6300
6300
6300
3700
1F00
0300
6300
6300
3600
1C00
0000
0000
0000
ENDCHAR

STARTCHAR C3a
ENCODING 58
SWIDTH 1000 0
DWIDTH 5 0
BBX 5 18 0 -3
BITMAP
00
00
00
00
00
00
E0
E0
00
00
00
00
00
E0
E0
00
00
00
ENDCHAR

STARTCHAR C3b
ENCODING 59
SWIDTH 1000 0
DWIDTH 6 0
BBX 6 18 0 -3
BITMAP
00
00
00
00
00
00
70
70
00
00
00
00
00
70
70
60
C0
00
ENDCHAR

STARTCHAR C3c
ENCODING 60
SWIDTH 1000 0
DWIDTH 9 0
BBX 9 18 0 -3
BITMAP
0000
0000
0000
0000
0600
0C00
1800
3000
6000
C000
6000
3000
1800
0C00
0600
0000
0000
0000
ENDCHAR

STARTCHAR C3d
ENCODING 61
SWIDTH 1000 0
DWIDTH 10 0
BBX 10 18 0 -3
BITMAP
0000
0000
0000
0000
0000
0000
0000
FF00
0000
0000
0000
FF00
0000
0000
0000
0000
0000
0000
ENDCHAR

STARTCHAR C3e
ENCODING 62
SWIDTH 1000 0
DWIDTH 9 0
BBX 9 18 0 -3
BITMAP
0000
0000
0000
0000
C000
6000
3000
1800
0C00
0600
0C00
1800
3000
6000
C000
0000
0000
0000
ENDCHAR

STARTCHAR C3f
ENCODING 63
SWIDTH 1000 0
DWIDTH 8 0
BBX 8 18 0 -3
BITMAP
00
00
78
CC
CC
CC
0C
0C
18
30
30
30
00
30
30
00
00
00
ENDCHAR

STARTCHAR C40
ENCODING 64
SWIDTH 1000 0
DWIDTH 11 0
BBX 11 18 0 -3
BITMAP
0000
0000
0000
3E00
6300
C180
CF80
DF80
D980
D980
D980
DF80
CF80
6000
3F00
0000
0000
0000
ENDCHAR

STARTCHAR C41
ENCODING 65
SWIDTH 1000 0
DWIDTH 10 0
BBX 10 18 0 -3
BITMAP
0000
0000
1800
3C00
3C00
6600
6600
6600
C300
FF00
C300
C300
C300
C300
C300
0000
0000
0000
ENDCHAR

STARTCHAR C42
ENCODING 66
SWIDTH 1000 0
DWIDTH 10 0
BBX 10 18 0 -3
BITMAP
0000
0000
FC00
C600
C300
C300
C300
C600
FC00
C600
C300
C300
C300
C600
FC00
0000
0000
0000
ENDCHAR

STARTCHAR C43
ENCODING 67
SWIDTH 1000 0
DWIDTH 10 0
BBX 10 18 0 -3
BITMAP
0000
0000
3C00
6600
C300
C300
C300
C000
C000
C000
C300
C300
C300
6600
3C00
0000
0000
0000
ENDCHAR

STARTCHAR C44
ENCODING 68
SWIDTH 1000 0
DWIDTH 10 0
BBX 10 18 0 -3
BITMAP
0000
0000
FC00
C600
C300
C300
C300
C300
C300
C300
C300
C300
C300
C600
FC00
0000
0000
0000
ENDCHAR

STARTCHAR C45
ENCODING 69
SWIDTH 1000 0
DWIDTH 10 0
BBX 10 18 0 -3
BITMAP
0000
0000
FF00
C000
C000
C000
C000
C000
FE00
C000
C000
C000
C000
C000
FF00
0000
0000
0000
ENDCHAR

STARTCHAR C46
ENCODING 70
SWIDTH 1000 0
DWIDTH 10 0
BBX 10 18 0 -3
BITMAP
0000
0000
FF00
C000
C000
C000
C000
C000
FE00
C000
C000
C000
C000
C000
C000
0000
0000
0000
ENDCHAR

STARTCHAR C47
ENCODING 71
SWIDTH 1000 0
DWIDTH 10 0
BBX 10 18 0 -3
BITMAP
0000
0000
3C00
6600
C300
C300
C000
C000
C000
DF00
C300
C300
C300
6600
3C00
0000
0000
0000
ENDCHAR

STARTCHAR C48
ENCODING 72
SWIDTH 1000 0
DWIDTH 10 0
BBX 10 18 0 -3
BITMAP
0000
0000
C300
C300
C300
C300
C300
C300
FF00
C300
C300
C300
C300
C300
C300
0000
0000
0000
ENDCHAR

STARTCHAR C49
ENCODING 73
SWIDTH 1000 0
DWIDTH 6 0
BBX 6 18 0 -3
BITMAP
00
00
F0
60
60
60
60
60
60
60
60
60
60
60
F0
00
00
00
ENDCHAR

STARTCHAR C4a
ENCODING 74
SWIDTH 1000 0
DWIDTH 9 0
BBX 9 18 0 -3
BITMAP
0000
0000
3E00
0C00
0C00
0C00
0C00
0C00
0C00
0C00
0C00
CC00
CC00
CC00
7800
0000
0000
0000
ENDCHAR

STARTCHAR C4b
ENCODING 75
SWIDTH 1000 0
DWIDTH 10 0
BBX 10 18 0 -3
BITMAP
0000
0000
C300
C600
CC00
D800
F000
F800
D800
CC00
CC00
C600
C600
C300
C300
0000
0000
0000
ENDCHAR

STARTCHAR C4c
ENCODING 76
SWIDTH 1000 0
DWIDTH 9 0
BBX 9 18 0 -3
BITMAP
0000
0000
C000
C000
C000
C000
C000
C000
C000
C000
C000
C000
C000
C000
FE00
0000
0000
0000
ENDCHAR

STARTCHAR C4d
ENCODING 77
SWIDTH 1000 0
DWIDTH 11 0
BBX 11 18 0 -3
BITMAP
0000
0000
C180
C180
E380
E380
F780
F780
FF80
DD80
DD80
C980
C980
C180
C180
0000
0000
0000
ENDCHAR

STARTCHAR C4e
ENCODING 78
SWIDTH 1000 0
DWIDTH 10 0
BBX 10 18 0 -3
BITMAP
0000
0000
C300
C300
E300
E300
F300
F300
DB00
CF00
CF00
C700
C700
C300
C300
0000
0000
0000
ENDCHAR

STARTCHAR C4f
ENCODING 79
SWIDTH 1000 0
DWIDTH 10 0
BBX 10 18 0 -3
BITMAP
0000
0000
3C00
6600
C300
C300
C300
C300
C300
C300
C300
C300
C300
6600
3C00
0000
0000
0000
ENDCHAR

STARTCHAR C50
ENCODING 80
SWIDTH 1000 0
DWIDTH 9 0
BBX 9 18 0 -3
BITMAP
0000
0000
F800
CC00
C600
C600
C600
CC00
F800
C000
C000
C000
C000
C000
C000
0000
0000
0000
ENDCHAR

STARTCHAR C51
ENCODING 81
SWIDTH 1000 0
DWIDTH 10 0
BBX 10 18 0 -3
BITMAP
0000
0000
3C00
6600
C300
C300
C300
C300
C300
C300
C300
C300
DB00
6E00
3E00
0300
0000
0000
ENDCHAR

STARTCHAR C52
ENCODING 82
SWIDTH 1000 0
DWIDTH 10 0
BBX 10 18 0 -3
BITMAP
0000
0000
FC00
C600
C300
C300
C300
C600
FC00
CC00
CC00
C600
C600
C300
C300
0000
0000
0000
ENDCHAR

STARTCHAR C53
ENCODING 83
SWIDTH 1000 0
DWIDTH 10 0
BBX 10 18 0 -3
BITMAP
0000
0000
3C00
6600
C300
C300
C300
6000
3800
0E00
C300
C300
C300
6600
3C00
0000
0000
0000
ENDCHAR

STARTCHAR C54
ENCODING 84
SWIDTH 1000 0
DWIDTH 10 0
BBX 10 18 0 -3
BITMAP
0000
0000
FF00
1800
1800
1800
1800
1800
1800
1800
1800
1800
1800
1800
1800
0000
0000
0000
ENDCHAR

STARTCHAR C55
ENCODING 85
SWIDTH 1000 0
DWIDTH 10 0
BBX 10 18 0 -3
BITMAP
0000
0000
C300
C300
C300
C300
C300
C300
C300
C300
C300
C300
C300
6600
3C00
0000
0000
0000
ENDCHAR

STARTCHAR C56
ENCODING 86
SWIDTH 1000 0
DWIDTH 10 0
BBX 10 18 0 -3
BITMAP
0000
0000
C300
C300
C300
C300
C300
6600
6600
6600
6600
3C00
3C00
3C00
1800
0000
0000
0000
ENDCHAR

STARTCHAR C57
ENCODING 87
SWIDTH 1000 0
DWIDTH 11 0
BBX 11 18 0 -3
BITMAP
0000
0000
C180
C180
C180
C180
C980
C980
DD80
DD80
FF80
F780
F780
6300
6300
0000
0000
0000
ENDCHAR

STARTCHAR C58
ENCODING 88
SWIDTH 1000 0
DWIDTH 10 0
BBX 10 18 0 -3
BITMAP
0000
0000
C300
C300
6600
6600
3C00
3C00
1800
3C00
3C00
6600
6600
C300
C300
0000
0000
0000
ENDCHAR

STARTCHAR C59
ENCODING 89
SWIDTH 1000 0
DWIDTH 10 0
BBX 10 18 0 -3
BITMAP
0000
0000
C300
C300
6600
6600
3C00
3C00
1800
1800
1800
1800
1800
1800
1800
0000
0000
0000
ENDCHAR

STARTCHAR C5a
ENCODING 90
SWIDTH 1000 0
DWIDTH 10 0
BBX 10 18 0 -3
BITMAP
0000
0000
FF00
0300
0600
0600
0C00
0C00
1800
1800
3000
3000
6000
C000
FF00
0000
0000
0000
ENDCHAR

STARTCHAR C5b
ENCODING 91
SWIDTH 1000 0
DWIDTH 6 0
BBX 6 18 0 -3
BITMAP
00
F0
C0
C0
C0
C0
C0
C0
C0
C0
C0
C0
C0
C0
C0
F0
00
00
ENDCHAR

STARTCHAR C5c
ENCODING 92
SWIDTH 1000 0
DWIDTH 10 0
BBX 10 18 0 -3
BITMAP
0000
0000
C000
C000
6000
6000
3000
3000
1800
1800
0C00
0C00
0600
0600
0300
0300
0000
0000
ENDCHAR

STARTCHAR C5d
ENCODING 93
SWIDTH 1000 0
DWIDTH 6 0
BBX 6 18 0 -3
BITMAP
00
F0
30
30
30
30
30
30
30
30
30
30
30
30
30
F0
00
00
ENDCHAR

STARTCHAR C5e
ENCODING 94
SWIDTH 1000 0
DWIDTH 8 0
BBX 8 18 0 -3
BITMAP
00
00
30
78
CC
00
00
00
00
00
00
00
00
00
00
00
00
00
ENDCHAR

STARTCHAR C5f
ENCODING 95
SWIDTH 1000 0
DWIDTH 10 0
BBX 10 18 0 -3
BITMAP
0000
0000
0000
0000
0000
0000
0000
0000
0000
0000
0000
0000
0000
0000
0000
FF00
0000
0000
ENDCHAR

STARTCHAR C60
ENCODING 96
SWIDTH 1000 0
DWIDTH 5 0
BBX 5 18 0 -3
BITMAP
00
C0
C0
60
00
00
00
00
00
00
00
00
00
00
00
00
00
00
ENDCHAR

STARTCHAR C61
ENCODING 97
SWIDTH 1000 0
DWIDTH 9 0
BBX 9 18 0 -3
BITMAP
0000
0000
0000
0000
0000
0000
0000
7C00
0600
0600
7E00
C600
C600
CE00
7E00
0000
0000
0000
ENDCHAR

STARTCHAR C62
ENCODING 98
SWIDTH 1000 0
DWIDTH 9 0
BBX 9 18 0 -3
BITMAP
0000
0000
C000
C000
C000
C000
C000
FC00
E600
C600
C600
C600
C600
E600
FC00
0000
0000
0000
ENDCHAR

STARTCHAR C63
ENCODING 99
SWIDTH 1000 0
DWIDTH 9 0
BBX 9 18 0 -3
BITMAP
0000
0000
0000
0000
0000
0000
0000
7C00
C600
C000
C000
C000
C600
C600
7C00
0000
0000
0000
ENDCHAR

STARTCHAR C64
ENCODING 100
SWIDTH 1000 0
DWIDTH 9 0
BBX 9 18 0 -3
BITMAP
0000
0000
0600
0600
0600
0600
0600
7E00
CE00
C600
C600
C600
C600
CE00
7E00
0000
0000
0000
ENDCHAR

STARTCHAR C65
ENCODING 101
SWIDTH 1000 0
DWIDTH 9 0
BBX 9 18 0 -3
BITMAP
0000
0000
0000
0000
0000
0000
0000
7C00
C600
C600
FE00
C000
C000
C600
7C00
0000
0000
0000
ENDCHAR

STARTCHAR C66
ENCODING 102
SWIDTH 1000 0
DWIDTH 9 0
BBX 9 18 0 -3
BITMAP
0000
0000
1C00
3600
3000
3000
3000
FE00
3000
3000
3000
3000
3000
3000
3000
0000
0000
0000
ENDCHAR

STARTCHAR C67
ENCODING 103
SWIDTH 1000 0
DWIDTH 10 0
BBX 10 18 0 -3
BITMAP
0000
0000
0000
0000
0000
0000
0000
3F00
6600
6600
6600
3C00
6000
7E00
C300
C300
7E00
0000
ENDCHAR

STARTCHAR C68
ENCODING 104
SWIDTH 1000 0
DWIDTH 9 0
BBX 9 18 0 -3
BITMAP
0000
0000
C000
C000
C000
C000
C000
FC00
E600
C600
C600
C600
C600
C600
C600
0000
0000
0000
ENDCHAR

STARTCHAR C69
ENCODING 105
SWIDTH 1000 0
DWIDTH 4 0
BBX 4 18 0 -3
BITMAP
00
00
C0
C0
00
00
00
C0
C0
C0
C0
C0
C0
C0
C0
00
00
00
ENDCHAR

STARTCHAR C6a
ENCODING 106
SWIDTH 1000 0
DWIDTH 8 0
BBX 8 18 0 -3
BITMAP
00
00
0C
0C
00
00
00
0C
0C
0C
0C
0C
0C
0C
CC
CC
78
00
ENDCHAR

STARTCHAR C6b
ENCODING 107
SWIDTH 1000 0
DWIDTH 9 0
BBX 9 18 0 -3
BITMAP
0000
0000
C000
C000
C000
C000
C000
CC00
D800
F000
E000
F000
D800
CC00
C600
0000
0000
0000
ENDCHAR

STARTCHAR C6c
ENCODING 108
SWIDTH 1000 0
DWIDTH 5 0
BBX 5 18 0 -3
BITMAP
00
00
E0
60
60
60
60
60
60
60
60
60
60
60
60
00
00
00
ENDCHAR

STARTCHAR C6d
ENCODING 109
SWIDTH 1000 0
DWIDTH 12 0
BBX 12 18 0 -3
BITMAP
0000
0000
0000
0000
0000
0000
0000
7F80
DDC0
CCC0
CCC0
CCC0
CCC0
CCC0
CCC0
0000
0000
0000
ENDCHAR

STARTCHAR C6e
ENCODING 110
SWIDTH 1000 0
DWIDTH 9 0
BBX 9 18 0 -3
BITMAP
0000
0000
0000
0000
0000
0000
0000
FC00
E600
C600
C600
C600
C600
C600
C600
0000
0000
0000
ENDCHAR

STARTCHAR C6f
ENCODING 111
SWIDTH 1000 0
DWIDTH 9 0
BBX 9 18 0 -3
BITMAP
0000
0000
0000
0000
0000
0000
0000
7C00
C600
C600
C600
C600
C600
C600
7C00
0000
0000
0000
ENDCHAR

STARTCHAR C70
ENCODING 112
SWIDTH 1000 0
DWIDTH 9 0
BBX 9 18 0 -3
BITMAP
0000
0000
0000
0000
0000
0000
0000
FC00
E600
C600
C600
C600
E600
FC00
C000
C000
C000
0000
ENDCHAR

STARTCHAR C71
ENCODING 113
SWIDTH 1000 0
DWIDTH 9 0
BBX 9 18 0 -3
BITMAP
0000
0000
0000
0000
0000
0000
0000
7E00
CE00
C600
C600
C600
CE00
7E00
0600
0600
0600
0000
ENDCHAR

STARTCHAR C72
ENCODING 114
SWIDTH 1000 0
DWIDTH 8 0
BBX 8 18 0 -3
BITMAP
00
00
00
00
00
00
00
DC
FC
E0
C0
C0
C0
C0
C0
00
00
00
ENDCHAR

STARTCHAR C73
ENCODING 115
SWIDTH 1000 0
DWIDTH 9 0
BBX 9 18 0 -3
BITMAP
0000
0000
0000
0000
0000
0000
0000
7C00
C600
C600
7000
1C00
C600
C600
7C00
0000
0000
0000
ENDCHAR

STARTCHAR C74
ENCODING 116
SWIDTH 1000 0
DWIDTH 9 0
BBX 9 18 0 -3
BITMAP
0000
0000
0000
3000
3000
3000
3000
FE00
3000
3000
3000
3000
3000
3600
1C00
0000
0000
0000
ENDCHAR

STARTCHAR C75
ENCODING 117
SWIDTH 1000 0
DWIDTH 9 0
BBX 9 18 0 -3
BITMAP
0000
0000
0000
0000
0000
0000
0000
C600
C600
C600
C600
C600
C600
CE00
7E00
0000
0000
0000
ENDCHAR

STARTCHAR C76
ENCODING 118
SWIDTH 1000 0
DWIDTH 9 0
BBX 9 18 0 -3
BITMAP
0000
0000
0000
0000
0000
0000
0000
C600
C600
C600
6C00
6C00
6C00
3800
3800
0000
0000
0000
ENDCHAR

STARTCHAR C77
ENCODING 119
SWIDTH 1000 0
DWIDTH 12 0
BBX 12 18 0 -3
BITMAP
0000
0000
0000
0000
0000
0000
0000
CCC0
CCC0
CCC0
CCC0
CCC0
CCC0
FFC0
7F80
0000
0000
0000
ENDCHAR

STARTCHAR C78
ENCODING 120
SWIDTH 1000 0
DWIDTH 9 0
BBX 9 18 0 -3
BITMAP
0000
0000
0000
0000
0000
0000
0000
C600
6C00
6C00
3800
3800
6C00
6C00
C600
0000
0000
0000
ENDCHAR

STARTCHAR C79
ENCODING 121
SWIDTH 1000 0
DWIDTH 8 0
BBX 8 18 0 -3
BITMAP
00
00
00
00
00
00
00
CC
CC
CC
CC
CC
7C
0C
0C
CC
78
00
ENDCHAR

STARTCHAR C7a
ENCODING 122
SWIDTH 1000 0
DWIDTH 9 0
BBX 9 18 0 -3
BITMAP
0000
0000
0000
0000
0000
0000
0000
FE00
0600
0C00
1800
3000
6000
C000
FE00
0000
0000
0000
ENDCHAR

STARTCHAR C7b
ENCODING 123
SWIDTH 1000 0
DWIDTH 7 0
BBX 7 18 0 -3
BITMAP
00
18
30
60
60
60
60
30
E0
30
60
60
60
60
30
18
00
00
ENDCHAR

STARTCHAR C7c
ENCODING 124
SWIDTH 1000 0
DWIDTH 4 0
BBX 4 18 0 -3
BITMAP
00
00
C0
C0
C0
C0
C0
C0
C0
C0
C0
C0
C0
C0
C0
00
00
00
ENDCHAR

STARTCHAR C7d
ENCODING 125
SWIDTH 1000 0
DWIDTH 7 0
BBX 7 18 0 -3
BITMAP
00
C0
60
30
30
30
30
60
38
60
30
30
30
30
60
C0
00
00
ENDCHAR

STARTCHAR C7e
ENCODING 126
SWIDTH 1000 0
DWIDTH 9 0
BBX 9 18 0 -3
BITMAP
0000
7600
DC00
0000
0000
0000
0000
0000
0000
0000
0000
0000
0000
0000
0000
0000
0000
0000
ENDCHAR

STARTCHAR C7f
ENCODING 127
SWIDTH 1000 0
DWIDTH 4 0
BBX 4 18 0 -3
BITMAP
00
00
00
00
00
00
00
00
00
00
00
00
00
00
00
00
00
00
ENDCHAR

STARTCHAR C80
ENCODING 128
SWIDTH 1000 0
DWIDTH 4 0
BBX 4 18 0 -3
BITMAP
00
00
00
00
00
00
00
00
00
00
00
00
00
00
00
00
00
00
ENDCHAR

STARTCHAR C81
ENCODING 129
SWIDTH 1000 0
DWIDTH 4 0
BBX 4 18 0 -3
BITMAP
00
00
00
00
00
00
00
00
00
00
00
00
00
00
00
00
00
00
ENDCHAR

STARTCHAR C82
ENCODING 130
SWIDTH 1000 0
DWIDTH 4 0
BBX 4 18 0 -3
BITMAP
00
00
00
00
00
00
00
00
00
00
00
00
00
00
00
00
00
00
ENDCHAR

STARTCHAR C83
ENCODING 131
SWIDTH 1000 0
DWIDTH 4 0
BBX 4 18 0 -3
BITMAP
00
00
00
00
00
00
00
00
00
00
00
00
00
00
00
00
00
00
ENDCHAR

STARTCHAR C84
ENCODING 132
SWIDTH 1000 0
DWIDTH 4 0
BBX 4 18 0 -3
BITMAP
00
00
00
00
00
00
00
00
00
00
00
00
00
00
00
00
00
00
ENDCHAR

STARTCHAR C85
ENCODING 133
SWIDTH 1000 0
DWIDTH 4 0
BBX 4 18 0 -3
BITMAP
00
00
00
00
00
00
00
00
00
00
00
00
00
00
00
00
00
00
ENDCHAR

STARTCHAR C86
ENCODING 134
SWIDTH 1000 0
DWIDTH 4 0
BBX 4 18 0 -3
BITMAP
00
00
00
00
00
00
00
00
00
00
00
00
00
00
00
00
00
00
ENDCHAR

STARTCHAR C87
ENCODING 135
SWIDTH 1000 0
DWIDTH 4 0
BBX 4 18 0 -3
BITMAP
00
00
00
00
00
00
00
00
00
00
00
00
00
00
00
00
00
00
ENDCHAR

STARTCHAR C88
ENCODING 136
SWIDTH 1000 0
DWIDTH 4 0
BBX 4 18 0 -3
BITMAP
00
00
00
00
00
00
00
00
00
00
00
00
00
00
00
00
00
00
ENDCHAR

STARTCHAR C89
ENCODING 137
SWIDTH 1000 0
DWIDTH 4 0
BBX 4 18 0 -3
BITMAP
00
00
00
00
00
00
00
00
00
00
00
00
00
00
00
00
00
00
ENDCHAR

STARTCHAR C8a
ENCODING 138
SWIDTH 1000 0
DWIDTH 4 0
BBX 4 18 0 -3
BITMAP
00
00
00
00
00
00
00
00
00
00
00
00
00
00
00
00
00
00
ENDCHAR

STARTCHAR C8b
ENCODING 139
SWIDTH 1000 0
DWIDTH 4 0
BBX 4 18 0 -3
BITMAP
00
00
00
00
00
00
00
00
00
00
00
00
00
00
00
00
00
00
ENDCHAR

STARTCHAR C8c
ENCODING 140
SWIDTH 1000 0
DWIDTH 4 0
BBX 4 18 0 -3
BITMAP
00
00
00
00
00
00
00
00
00
00
00
00
00
00
00
00
00
00
ENDCHAR

STARTCHAR C8d
ENCODING 141
SWIDTH 1000 0
DWIDTH 4 0
BBX 4 18 0 -3
BITMAP
00
00
00
00
00
00
00
00
00
00
00
00
00
00
00
00
00
00
ENDCHAR

STARTCHAR C8e
ENCODING 142
SWIDTH 1000 0
DWIDTH 4 0
BBX 4 18 0 -3
BITMAP
00
00
00
00
00
00
00
00
00
00
00
00
00
00
00
00
00
00
ENDCHAR

STARTCHAR C8f
ENCODING 143
SWIDTH 1000 0
DWIDTH 4 0
BBX 4 18 0 -3
BITMAP
00
00
00
00
00
00
00
00
00
00
00
00
00
00
00
00
00
00
ENDCHAR

STARTCHAR C90
ENCODING 144
SWIDTH 1000 0
DWIDTH 4 0
BBX 4 18 0 -3
BITMAP
00
00
00
00
00
00
00
00
00
00
00
00
00
00
00
00
00
00
ENDCHAR

STARTCHAR C91
ENCODING 145
SWIDTH 1000 0
DWIDTH 4 0
BBX 4 18 0 -3
BITMAP
00
00
00
00
00
00
00
00
00
00
00
00
00
00
00
00
00
00
ENDCHAR

STARTCHAR C92
ENCODING 146
SWIDTH 1000 0
DWIDTH 4 0
BBX 4 18 0 -3
BITMAP
00
00
00
00
00
00
00
00
00
00
00
00
00
00
00
00
00
00
ENDCHAR

STARTCHAR C93
ENCODING 147
SWIDTH 1000 0
DWIDTH 4 0
BBX 4 18 0 -3
BITMAP
00
00
00
00
00
00
00
00
00
00
00
00
00
00
00
00
00
00
ENDCHAR

STARTCHAR C94
ENCODING 148
SWIDTH 1000 0
DWIDTH 4 0
BBX 4 18 0 -3
BITMAP
00
00
00
00
00
00
00
00
00
00
00
00
00
00
00
00
00
00
ENDCHAR

STARTCHAR C95
ENCODING 149
SWIDTH 1000 0
DWIDTH 4 0
BBX 4 18 0 -3
BITMAP
00
00
00
00
00
00
00
00
00
00
00
00
00
00
00
00
00
00
ENDCHAR

STARTCHAR C96
ENCODING 150
SWIDTH 1000 0
DWIDTH 4 0
BBX 4 18 0 -3
BITMAP
00
00
00
00
00
00
00
00
00
00
00
00
00
00
00
00
00
00
ENDCHAR

STARTCHAR C97
ENCODING 151
SWIDTH 1000 0
DWIDTH 4 0
BBX 4 18 0 -3
BITMAP
00
00
00
00
00
00
00
00
00
00
00
00
00
00
00
00
00
00
ENDCHAR

STARTCHAR C98
ENCODING 152
SWIDTH 1000 0
DWIDTH 4 0
BBX 4 18 0 -3
BITMAP
00
00
00
00
00
00
00
00
00
00
00
00
00
00
00
00
00
00
ENDCHAR

STARTCHAR C99
ENCODING 153
SWIDTH 1000 0
DWIDTH 4 0
BBX 4 18 0 -3
BITMAP
00
00
00
00
00
00
00
00
00
00
00
00
00
00
00
00
00
00
ENDCHAR

STARTCHAR C9a
ENCODING 154
SWIDTH 1000 0
DWIDTH 4 0
BBX 4 18 0 -3
BITMAP
00
00
00
00
00
00
00
00
00
00
00
00
00
00
00
00
00
00
ENDCHAR

STARTCHAR C9b
ENCODING 155
SWIDTH 1000 0
DWIDTH 4 0
BBX 4 18 0 -3
BITMAP
00
00
00
00
00
00
00
00
00
00
00
00
00
00
00
00
00
00
ENDCHAR

STARTCHAR C9c
ENCODING 156
SWIDTH 1000 0
DWIDTH 4 0
BBX 4 18 0 -3
BITMAP
00
00
00
00
00
00
00
00
00
00
00
00
00
00
00
00
00
00
ENDCHAR

STARTCHAR C9d
ENCODING 157
SWIDTH 1000 0
DWIDTH 4 0
BBX 4 18 0 -3
BITMAP
00
00
00
00
00
00
00
00
00
00
00
00
00
00
00
00
00
00
ENDCHAR

STARTCHAR C9e
ENCODING 158
SWIDTH 1000 0
DWIDTH 4 0
BBX 4 18 0 -3
BITMAP
00
00
00
00
00
00
00
00
00
00
00
00
00
00
00
00
00
00
ENDCHAR

STARTCHAR C9f
ENCODING 159
SWIDTH 1000 0
DWIDTH 4 0
BBX 4 18 0 -3
BITMAP
00
00
00
00
00
00
00
00
00
00
00
00
00
00
00
00
00
00
ENDCHAR

STARTCHAR Ca0
ENCODING 160
SWIDTH 1000 0
DWIDTH 4 0
BBX 4 18 0 -3
BITMAP
00
00
00
00
00
00
00
00
00
00
00
00
00
00
00
00
00
00
ENDCHAR

STARTCHAR Ca1
ENCODING 161
SWIDTH 1000 0
DWIDTH 4 0
BBX 4 18 0 -3
BITMAP
00
00
C0
C0
00
C0
C0
C0
C0
C0
C0
C0
C0
C0
C0
00
00
00
ENDCHAR

STARTCHAR Ca2
ENCODING 162
SWIDTH 1000 0
DWIDTH 9 0
BBX 9 18 0 -3
BITMAP
0000
0000
1800
1800
7C00
C600
C000
C000
C000
C000
C000
C600
C600
7C00
1800
1800
0000
0000
ENDCHAR

STARTCHAR Ca3
ENCODING 163
SWIDTH 1000 0
DWIDTH 10 0
BBX 10 18 0 -3
BITMAP
0000
0000
1C00
3600
3600
3600
3000
3000
3000
FC00
3000
3000
3000
7B00
EE00
0000
0000
0000
ENDCHAR

STARTCHAR Ca4
ENCODING 164
SWIDTH 1000 0
DWIDTH 10 0
BBX 10 18 0 -3
BITMAP
0000
0000
0000
0000
0000
C300
6600
3C00
6600
6600
6600
3C00
6600
C300
0000
0000
0000
0000
ENDCHAR

STARTCHAR Ca5
ENCODING 165
SWIDTH 1000 0
DWIDTH 10 0
BBX 10 18 0 -3
BITMAP
0000
0000
C300
C300
6600
6600
3C00
FF00
1800
1800
FF00
1800
1800
1800
1800
1800
0000
0000
ENDCHAR

STARTCHAR Ca6
ENCODING 166
SWIDTH 1000 0
DWIDTH 4 0
BBX 4 18 0 -3
BITMAP
00
00
C0
C0
C0
C0
C0
C0
00
00
C0
C0
C0
C0
C0
C0
00
00
ENDCHAR

STARTCHAR Ca7
ENCODING 167
SWIDTH 1000 0
DWIDTH 9 0
BBX 9 18 0 -3
BITMAP
0000
0000
0000
7C00
C600
C600
C000
7C00
C600
C600
7C00
0600
C600
C600
7C00
0000
0000
0000
ENDCHAR

STARTCHAR Ca8
ENCODING 168
SWIDTH 1000 0
DWIDTH 7 0
BBX 7 18 0 -3
BITMAP
00
00
D8
D8
00
00
00
00
00
00
00
00
00
00
00
00
00
00
ENDCHAR

STARTCHAR Ca9
ENCODING 169
SWIDTH 1000 0
DWIDTH 12 0
BBX 12 18 0 -3
BITMAP
0000
0000
0000
1E00
3300
6180
CCC0
DAC0
D8C0
D8C0
DAC0
CCC0
6180
3300
1E00
0000
0000
0000
ENDCHAR

STARTCHAR Caa
ENCODING 170
SWIDTH 1000 0
DWIDTH 8 0
BBX 8 18 0 -3
BITMAP
00
78
0C
0C
7C
CC
CC
7C
00
FC
00
00
00
00
00
00
00
00
ENDCHAR

STARTCHAR Cab
ENCODING 171
SWIDTH 1000 0
DWIDTH 10 0
BBX 10 18 0 -3
BITMAP
0000
0000
0000
0000
0000
0000
1B00
3600
6C00
D800
6C00
3600
1B00
0000
0000
0000
0000
0000
ENDCHAR

STARTCHAR Cac
ENCODING 172
SWIDTH 1000 0
DWIDTH 10 0
BBX 10 18 0 -3
BITMAP
0000
0000
0000
0000
0000
0000
0000
0000
FF00
0300
0300
0000
0000
0000
0000
0000
0000
0000
ENDCHAR

STARTCHAR Cad
ENCODING 173
SWIDTH 1000 0
DWIDTH 9 0
BBX 9 18 0 -3
BITMAP
0000
0000
0000
0000
0000
0000
0000
0000
FE00
0000
0000
0000
0000
0000
0000
0000
0000
0000
ENDCHAR

STARTCHAR Cae
ENCODING 174
SWIDTH 1000 0
DWIDTH 12 0
BBX 12 18 0 -3
BITMAP
0000
0000
0000
1E00
3300
6180
DCC0
DAC0
DAC0
DCC0
DAC0
DAC0
6180
3300
1E00
0000
0000
0000
ENDCHAR

STARTCHAR Caf
ENCODING 175
SWIDTH 1000 0
DWIDTH 10 0
BBX 10 18 0 -3
BITMAP
0000
0000
FF00
0000
0000
0000
0000
0000
0000
0000
0000
0000
0000
0000
0000
0000
0000
0000
ENDCHAR

STARTCHAR Cb0
ENCODING 176
SWIDTH 1000 0
DWIDTH 7 0
BBX 7 18 0 -3
BITMAP
00
70
D8
D8
70
00
00
00
00
00
00
00
00
00
00
00
00
00
ENDCHAR

STARTCHAR Cb1
ENCODING 177
SWIDTH 1000 0
DWIDTH 10 0
BBX 10 18 0 -3
BITMAP
0000
0000
1800
1800
1800
FF00
1800
1800
1800
0000
0000
FF00
0000
0000
0000
0000
0000
0000
ENDCHAR

STARTCHAR Cb2
ENCODING 178
SWIDTH 1000 0
DWIDTH 7 0
BBX 7 18 0 -3
BITMAP
00
70
D8
18
30
60
C0
F8
00
00
00
00
00
00
00
00
00
00
ENDCHAR

STARTCHAR Cb3
ENCODING 179
SWIDTH 1000 0
DWIDTH 7 0
BBX 7 18 0 -3
BITMAP
00
70
D8
18
30
18
D8
70
00
00
00
00
00
00
00
00
00
00
ENDCHAR

STARTCHAR Cb4
ENCODING 180
SWIDTH 1000 0
DWIDTH 6 0
BBX 6 18 0 -3
BITMAP
00
00
70
C0
00
00
00
00
00
00
00
00
00
00
00
00
00
00
ENDCHAR

STARTCHAR Cb5
ENCODING 181
SWIDTH 1000 0
DWIDTH 11 0
BBX 11 18 0 -3
BITMAP
0000
0000
0000
0000
0000
0000
0000
0D80
0D80
1B00
1B00
3600
3600
7F80
C000
0000
0000
0000
ENDCHAR

STARTCHAR Cb6
ENCODING 182
SWIDTH 1000 0
DWIDTH 11 0
BBX 11 18 0 -3
BITMAP
0000
0000
3B80
7B00
FB00
FB00
FB00
7B00
3B00
1B00
1B00
1B00
1B00
1B00
1B00
1B00
0000
0000
ENDCHAR

STARTCHAR Cb7
ENCODING 183
SWIDTH 1000 0
DWIDTH 5 0
BBX 5 18 0 -3
BITMAP
00
00
00
00
00
00
00
E0
E0
00
00
00
00
00
00
00
00
00
ENDCHAR

STARTCHAR Cb8
ENCODING 184
SWIDTH 1000 0
DWIDTH 6 0
BBX 6 18 0 -3
BITMAP
00
00
00
00
00
00
00
00
00
00
00
00
00
00
00
70
C0
00
ENDCHAR

STARTCHAR Cb9
ENCODING 185
SWIDTH 1000 0
DWIDTH 6 0
BBX 6 18 0 -3
BITMAP
00
60
E0
60
60
60
60
F0
00
00
00
00
00
00
00
00
00
00
ENDCHAR

STARTCHAR Cba
ENCODING 186
SWIDTH 1000 0
DWIDTH 8 0
BBX 8 18 0 -3
BITMAP
00
78
CC
CC
CC
CC
CC
78
00
FC
00
00
00
00
00
00
00
00
ENDCHAR

STARTCHAR Cbb
ENCODING 187
SWIDTH 1000 0
DWIDTH 10 0
BBX 10 18 0 -3
BITMAP
0000
0000
0000
0000
0000
D800
6C00
3600
1B00
3600
6C00
D800
0000
0000
0000
0000
0000
0000
ENDCHAR

STARTCHAR Cbc
ENCODING 188
SWIDTH 1000 0
DWIDTH 10 0
BBX 10 18 0 -3
BITMAP
0000
0000
6000
E000
6000
6000
6600
FC00
1800
3600
6E00
DE00
3600
3F00
0600
0000
0000
0000
ENDCHAR

STARTCHAR Cbd
ENCODING 189
SWIDTH 1000 0
DWIDTH 10 0
BBX 10 18 0 -3
BITMAP
0000
0000
6000
E000
6000
6000
6600
FC00
1800
3E00
7B00
C300
0600
0C00
1F00
0000
0000
0000
ENDCHAR

STARTCHAR Cbe
ENCODING 190
SWIDTH 1000 0
DWIDTH 10 0
BBX 10 18 0 -3
BITMAP
0000
0000
7000
1800
7000
1800
DE00
7C00
1800
3600
6E00
DE00
3600
3F00
0600
0000
0000
0000
ENDCHAR

STARTCHAR Cbf
ENCODING 191
SWIDTH 1000 0
DWIDTH 8 0
BBX 8 18 0 -3
BITMAP
00
00
30
30
00
30
30
30
60
C0
C0
C0
CC
CC
78
00
00
00
ENDCHAR

STARTCHAR Cc0
ENCODING 192
SWIDTH 1000 0
DWIDTH 10 0
BBX 10 18 0 -3
BITMAP
0000
3800
0C00
0000
1800
3C00
3C00
6600
6600
C300
FF00
C300
C300
C300
C300
0000
0000
0000
ENDCHAR

STARTCHAR Cc1
ENCODING 193
SWIDTH 1000 0
DWIDTH 10 0
BBX 10 18 0 -3
BITMAP
0000
1C00
3000
0000
1800
3C00
3C00
6600
6600
C300
FF00
C300
C300
C300
C300
0000
0000
0000
ENDCHAR

STARTCHAR Cc2
ENCODING 194
SWIDTH 1000 0
DWIDTH 10 0
BBX 10 18 0 -3
BITMAP
0000
1800
3C00
0000
1800
3C00
3C00
6600
6600
C300
FF00
C300
C300
C300
C300
0000
0000
0000
ENDCHAR

STARTCHAR Cc3
ENCODING 195
SWIDTH 1000 0
DWIDTH 10 0
BBX 10 18 0 -3
BITMAP
0000
7B00
CE00
0000
1800
3C00
3C00
6600
6600
C300
FF00
C300
C300
C300
C300
0000
0000
0000
ENDCHAR

STARTCHAR Cc4
ENCODING 196
SWIDTH 1000 0
DWIDTH 10 0
BBX 10 18 0 -3
BITMAP
0000
3C00
3C00
0000
1800
3C00
3C00
6600
6600
C300
FF00
C300
C300
C300
C300
0000
0000
0000
ENDCHAR

STARTCHAR Cc5
ENCODING 197
SWIDTH 1000 0
DWIDTH 10 0
BBX 10 18 0 -3
BITMAP
0000
1800
1800
0000
1800
3C00
3C00
6600
6600
C300
FF00
C300
C300
C300
C300
0000
0000
0000
ENDCHAR

STARTCHAR Cc6
ENCODING 198
SWIDTH 1000 0
DWIDTH 10 0
BBX 10 18 0 -3
BITMAP
0000
0000
1F00
3C00
3C00
6C00
6C00
CC00
CF00
FC00
CC00
CC00
CC00
CC00
CF00
0000
0000
0000
ENDCHAR

STARTCHAR Cc7
ENCODING 199
SWIDTH 1000 0
DWIDTH 10 0
BBX 10 18 0 -3
BITMAP
0000
0000
3C00
6600
C300
C300
C000
C000
C000
C000
C000
C300
C300
6600
3C00
0600
3C00
0000
ENDCHAR

STARTCHAR Cc8
ENCODING 200
SWIDTH 1000 0
DWIDTH 10 0
BBX 10 18 0 -3
BITMAP
0000
3800
0C00
0000
FF00
C000
C000
C000
C000
FE00
C000
C000
C000
C000
FF00
0000
0000
0000
ENDCHAR

STARTCHAR Cc9
ENCODING 201
SWIDTH 1000 0
DWIDTH 10 0
BBX 10 18 0 -3
BITMAP
0000
1C00
3000
0000
FF00
C000
C000
C000
C000
FE00
C000
C000
C000
C000
FF00
0000
0000
0000
ENDCHAR

STARTCHAR Cca
ENCODING 202
SWIDTH 1000 0
DWIDTH 10 0
BBX 10 18 0 -3
BITMAP
0000
1800
3C00
0000
FF00
C000
C000
C000
C000
FE00
C000
C000
C000
C000
FF00
0000
0000
0000
ENDCHAR

STARTCHAR Ccb
ENCODING 203
SWIDTH 1000 0
DWIDTH 10 0
BBX 10 18 0 -3
BITMAP
0000
3C00
3C00
0000
FF00
C000
C000
C000
C000
FE00
C000
C000
C000
C000
FF00
0000
0000
0000
ENDCHAR

STARTCHAR Ccc
ENCODING 204
SWIDTH 1000 0
DWIDTH 6 0
BBX 6 18 0 -3
BITMAP
00
E0
30
00
F0
60
60
60
60
60
60
60
60
60
F0
00
00
00
ENDCHAR

STARTCHAR Ccd
ENCODING 205
SWIDTH 1000 0
DWIDTH 6 0
BBX 6 18 0 -3
BITMAP
00
70
C0
00
F0
60
60
60
60
60
60
60
60
60
F0
00
00
00
ENDCHAR

STARTCHAR Cce
ENCODING 206
SWIDTH 1000 0
DWIDTH 6 0
BBX 6 18 0 -3
BITMAP
00
60
F0
00
F0
60
60
60
60
60
60
60
60
60
F0
00
00
00
ENDCHAR

STARTCHAR Ccf
ENCODING 207
SWIDTH 1000 0
DWIDTH 6 0
BBX 6 18 0 -3
BITMAP
00
F0
F0
00
F0
60
60
60
60
60
60
60
60
60
F0
00
00
00
ENDCHAR

STARTCHAR Cd0
ENCODING 208
SWIDTH 1000 0
DWIDTH 10 0
BBX 10 18 0 -3
BITMAP
0000
0000
0000
FC00
6600
6300
6300
6300
F300
6300
6300
6300
6300
6600
FC00
0000
0000
0000
ENDCHAR

STARTCHAR Cd1
ENCODING 209
SWIDTH 1000 0
DWIDTH 10 0
BBX 10 18 0 -3
BITMAP
0000
7B00
CE00
0000
E300
E300
F300
F300
DB00
DB00
CF00
CF00
C700
C700
C300
0000
0000
0000
ENDCHAR

STARTCHAR Cd2
ENCODING 210
SWIDTH 1000 0
DWIDTH 10 0
BBX 10 18 0 -3
BITMAP
0000
3800
0C00
0000
3C00
6600
C300
C300
C300
C300
C300
C300
C300
6600
3C00
0000
0000
0000
ENDCHAR

STARTCHAR Cd3
ENCODING 211
SWIDTH 1000 0
DWIDTH 10 0
BBX 10 18 0 -3
BITMAP
0000
1C00
3000
0000
3C00
6600
C300
C300
C300
C300
C300
C300
C300
6600
3C00
0000
0000
0000
ENDCHAR

STARTCHAR Cd4
ENCODING 212
SWIDTH 1000 0
DWIDTH 10 0
BBX 10 18 0 -3
BITMAP
0000
1800
3C00
0000
3C00
6600
C300
C300
C300
C300
C300
C300
C300
6600
3C00
0000
0000
0000
ENDCHAR

STARTCHAR Cd5
ENCODING 213
SWIDTH 1000 0
DWIDTH 10 0
BBX 10 18 0 -3
BITMAP
0000
7B00
CE00
0000
3C00
6600
C300
C300
C300
C300
C300
C300
C300
6600
3C00
0000
0000
0000
ENDCHAR

STARTCHAR Cd6
ENCODING 214
SWIDTH 1000 0
DWIDTH 10 0
BBX 10 18 0 -3
BITMAP
0000
3C00
3C00
0000
3C00
6600
C300
C300
C300
C300
C300
C300
C300
6600
3C00
0000
0000
0000
ENDCHAR

STARTCHAR Cd7
ENCODING 215
SWIDTH 1000 0
DWIDTH 10 0
BBX 10 18 0 -3
BITMAP
0000
0000
0000
0000
0000
C300
6600
3C00
1800
3C00
6600
C300
0000
0000
0000
0000
0000
0000
ENDCHAR

STARTCHAR Cd8
ENCODING 216
SWIDTH 1000 0
DWIDTH 10 0
BBX 10 18 0 -3
BITMAP
0000
0000
0300
3F00
6600
C700
CF00
CF00
DB00
DB00
F300
F300
E300
6600
FC00
C000
0000
0000
ENDCHAR

STARTCHAR Cd9
ENCODING 217
SWIDTH 1000 0
DWIDTH 10 0
BBX 10 18 0 -3
BITMAP
0000
3800
0C00
0000
C300
C300
C300
C300
C300
C300
C300
C300
C300
6600
3C00
0000
0000
0000
ENDCHAR

STARTCHAR Cda
ENCODING 218
SWIDTH 1000 0
DWIDTH 10 0
BBX 10 18 0 -3
BITMAP
0000
1C00
3000
0000
C300
C300
C300
C300
C300
C300
C300
C300
C300
6600
3C00
0000
0000
0000
ENDCHAR

STARTCHAR Cdb
ENCODING 219
SWIDTH 1000 0
DWIDTH 10 0
BBX 10 18 0 -3
BITMAP
0000
1800
3C00
0000
C300
C300
C300
C300
C300
C300
C300
C300
C300
6600
3C00
0000
0000
0000
ENDCHAR

STARTCHAR Cdc
ENCODING 220
SWIDTH 1000 0
DWIDTH 10 0
BBX 10 18 0 -3
BITMAP
0000
3C00
3C00
0000
C300
C300
C300
C300
C300
C300
C300
C300
C300
6600
3C00
0000
0000
0000
ENDCHAR

STARTCHAR Cdd
ENCODING 221
SWIDTH 1000 0
DWIDTH 10 0
BBX 10 18 0 -3
BITMAP
0000
1C00
3000
0000
C300
C300
6600
6600
3C00
1800
1800
1800
1800
1800
1800
0000
0000
0000
ENDCHAR

STARTCHAR Cde
ENCODING 222
SWIDTH 1000 0
DWIDTH 9 0
BBX 9 18 0 -3
BITMAP
0000
0000
0000
F000
6000
7C00
6600
6600
6600
6600
7C00
6000
6000
6000
F000
0000
0000
0000
ENDCHAR

STARTCHAR Cdf
ENCODING 223
SWIDTH 1000 0
DWIDTH 10 0
BBX 10 18 0 -3
BITMAP
0000
0000
1800
3C00
3600
3600
3600
3C00
3C00
3600
3300
3300
3300
3F00
6600
6000
C000
0000
ENDCHAR

STARTCHAR Ce0
ENCODING 224
SWIDTH 1000 0
DWIDTH 9 0
BBX 9 18 0 -3
BITMAP
0000
0000
0000
0000
3000
1800
0000
7C00
0600
0600
7E00
C600
C600
CE00
7E00
0000
0000
0000
ENDCHAR

STARTCHAR Ce1
ENCODING 225
SWIDTH 1000 0
DWIDTH 9 0
BBX 9 18 0 -3
BITMAP
0000
0000
0000
0000
1800
3000
0000
7C00
0600
0600
7E00
C600
C600
CE00
7E00
0000
0000
0000
ENDCHAR

STARTCHAR Ce2
ENCODING 226
SWIDTH 1000 0
DWIDTH 9 0
BBX 9 18 0 -3
BITMAP
0000
0000
0000
0000
3800
6C00
0000
7C00
0600
0600
7E00
C600
C600
CE00
7E00
0000
0000
0000
ENDCHAR

STARTCHAR Ce3
ENCODING 227
SWIDTH 1000 0
DWIDTH 9 0
BBX 9 18 0 -3
BITMAP
0000
0000
0000
0000
7600
DC00
0000
7C00
0600
0600
7E00
C600
C600
CE00
7E00
0000
0000
0000
ENDCHAR

STARTCHAR Ce4
ENCODING 228
SWIDTH 1000 0
DWIDTH 9 0
BBX 9 18 0 -3
BITMAP
0000
0000
0000
0000
6C00
6C00
0000
7C00
0600
0600
7E00
C600
C600
CE00
7E00
0000
0000
0000
ENDCHAR

STARTCHAR Ce5
ENCODING 229
SWIDTH 1000 0
DWIDTH 9 0
BBX 9 18 0 -3
BITMAP
0000
0000
0000
0000
1800
1800
0000
7C00
0600
0600
7E00
C600
C600
CE00
7E00
0000
0000
0000
ENDCHAR

STARTCHAR Ce6
ENCODING 230
SWIDTH 1000 0
DWIDTH 10 0
BBX 10 18 0 -3
BITMAP
0000
0000
0000
0000
0000
0000
0000
7E00
1B00
1B00
7E00
D800
D800
D800
7F00
0000
0000
0000
ENDCHAR

STARTCHAR Ce7
ENCODING 231
SWIDTH 1000 0
DWIDTH 9 0
BBX 9 18 0 -3
BITMAP
0000
0000
0000
0000
0000
0000
0000
7C00
C600
C000
C000
C000
C600
C600
7C00
0C00
3800
0000
ENDCHAR

STARTCHAR Ce8
ENCODING 232
SWIDTH 1000 0
DWIDTH 9 0
BBX 9 18 0 -3
BITMAP
0000
0000
0000
0000
3000
1800
0000
7C00
C600
C600
FE00
C000
C000
C000
7C00
0000
0000
0000
ENDCHAR

STARTCHAR Ce9
ENCODING 233
SWIDTH 1000 0
DWIDTH 9 0
BBX 9 18 0 -3
BITMAP
0000
0000
0000
0000
1800
3000
0000
7C00
C600
C600
FE00
C000
C000
C000
7C00
0000
0000
0000
ENDCHAR

STARTCHAR Cea
ENCODING 234
SWIDTH 1000 0
DWIDTH 9 0
BBX 9 18 0 -3
BITMAP
0000
0000
0000
0000
3800
6C00
0000
7C00
C600
C600
FE00
C000
C000
C000
7C00
0000
0000
0000
ENDCHAR

STARTCHAR Ceb
ENCODING 235
SWIDTH 1000 0
DWIDTH 9 0
BBX 9 18 0 -3
BITMAP
0000
0000
0000
0000
6C00
6C00
0000
7C00
C600
C600
FE00
C000
C000
C000
7C00
0000
0000
0000
ENDCHAR

STARTCHAR Cec
ENCODING 236
SWIDTH 1000 0
DWIDTH 6 0
BBX 6 18 0 -3
BITMAP
00
00
00
00
E0
30
00
60
60
60
60
60
60
60
60
00
00
00
ENDCHAR

STARTCHAR Ced
ENCODING 237
SWIDTH 1000 0
DWIDTH 6 0
BBX 6 18 0 -3
BITMAP
00
00
00
00
70
C0
00
60
60
60
60
60
60
60
60
00
00
00
ENDCHAR

STARTCHAR Cee
ENCODING 238
SWIDTH 1000 0
DWIDTH 6 0
BBX 6 18 0 -3
BITMAP
00
00
00
00
60
F0
00
60
60
60
60
60
60
60
60
00
00
00
ENDCHAR

STARTCHAR Cef
ENCODING 239
SWIDTH 1000 0
DWIDTH 6 0
BBX 6 18 0 -3
BITMAP
00
00
00
00
F0
F0
00
60
60
60
60
60
60
60
60
00
00
00
ENDCHAR

STARTCHAR Cf0
ENCODING 240
SWIDTH 1000 0
DWIDTH 9 0
BBX 9 18 0 -3
BITMAP
0000
0000
0000
E000
3C00
3800
7800
0C00
7C00
C600
C600
C600
C600
C600
7C00
0000
0000
0000
ENDCHAR

STARTCHAR Cf1
ENCODING 241
SWIDTH 1000 0
DWIDTH 9 0
BBX 9 18 0 -3
BITMAP
0000
0000
0000
0000
7600
DC00
0000
FC00
E600
C600
C600
C600
C600
C600
C600
0000
0000
0000
ENDCHAR

STARTCHAR Cf2
ENCODING 242
SWIDTH 1000 0
DWIDTH 9 0
BBX 9 18 0 -3
BITMAP
0000
0000
0000
0000
3000
1800
0000
7C00
C600
C600
C600
C600
C600
C600
7C00
0000
0000
0000
ENDCHAR

STARTCHAR Cf3
ENCODING 243
SWIDTH 1000 0
DWIDTH 9 0
BBX 9 18 0 -3
BITMAP
0000
0000
0000
0000
1800
3000
0000
7C00
C600
C600
C600
C600
C600
C600
7C00
0000
0000
0000
ENDCHAR

STARTCHAR Cf4
ENCODING 244
SWIDTH 1000 0
DWIDTH 9 0
BBX 9 18 0 -3
BITMAP
0000
0000
0000
0000
3800
6C00
0000
7C00
C600
C600
C600
C600
C600
C600
7C00
0000
0000
0000
ENDCHAR

STARTCHAR Cf5
ENCODING 245
SWIDTH 1000 0
DWIDTH 9 0
BBX 9 18 0 -3
BITMAP
0000
0000
0000
0000
7600
DC00
0000
7C00
C600
C600
C600
C600
C600
C600
7C00
0000
0000
0000
ENDCHAR

STARTCHAR Cf6
ENCODING 246
SWIDTH 1000 0
DWIDTH 9 0
BBX 9 18 0 -3
BITMAP
0000
0000
0000
0000
6C00
6C00
0000
7C00
C600
C600
C600
C600
C600
C600
7C00
0000
0000
0000
ENDCHAR

STARTCHAR Cf7
ENCODING 247
SWIDTH 1000 0
DWIDTH 9 0
BBX 9 18 0 -3
BITMAP
0000
0000
0000
0000
0000
3800
3800
0000
0000
FE00
0000
0000
3800
3800
0000
0000
0000
0000
ENDCHAR

STARTCHAR Cf8
ENCODING 248
SWIDTH 1000 0
DWIDTH 9 0
BBX 9 18 0 -3
BITMAP
0000
0000
0000
0000
0000
0000
0600
7E00
CC00
DE00
DE00
F600
F600
6600
FC00
C000
0000
0000
ENDCHAR

STARTCHAR Cf9
ENCODING 249
SWIDTH 1000 0
DWIDTH 9 0
BBX 9 18 0 -3
BITMAP
0000
0000
0000
0000
3000
1800
0000
C600
C600
C600
C600
C600
C600
CE00
7E00
0000
0000
0000
ENDCHAR

STARTCHAR Cfa
ENCODING 250
SWIDTH 1000 0
DWIDTH 9 0
BBX 9 18 0 -3
BITMAP
0000
0000
0000
0000
1800
3000
0000
C600
C600
C600
C600
C600
C600
CE00
7E00
0000
0000
0000
ENDCHAR

STARTCHAR Cfb
ENCODING 251
SWIDTH 1000 0
DWIDTH 9 0
BBX 9 18 0 -3
BITMAP
0000
0000
0000
0000
3800
6C00
0000
C600
C600
C600
C600
C600
C600
CE00
7E00
0000
0000
0000
ENDCHAR

STARTCHAR Cfc
ENCODING 252
SWIDTH 1000 0
DWIDTH 9 0
BBX 9 18 0 -3
BITMAP
0000
0000
0000
0000
6C00
6C00
0000
C600
C600
C600
C600
C600
C600
CE00
7E00
0000
0000
0000
ENDCHAR

STARTCHAR Cfd
ENCODING 253
SWIDTH 1000 0
DWIDTH 8 0
BBX 8 18 0 -3
BITMAP
00
00
00
00
38
60
00
CC
CC
CC
CC
CC
7C
0C
0C
CC
78
00
ENDCHAR

STARTCHAR Cfe
ENCODING 254
SWIDTH 1000 0
DWIDTH 9 0
BBX 9 18 0 -3
BITMAP
0000
0000
0000
0000
0000
0000
C000
C000
FC00
C600
C600
C600
FC00
C000
C000
C000
C000
0000
ENDCHAR

STARTCHAR Cff
ENCODING 255
SWIDTH 1000 0
DWIDTH 8 0
BBX 8 18 0 -3
BITMAP
00
00
00
00
78
78
00
CC
CC
CC
CC
CC
7C
0C
0C
CC
78
00
ENDCHAR
ENDFONT
